<svg id="Capa_1" enable-background="new 0 0 512 512" height="512" viewBox="0 0 512 512" width="512" xmlns="http://www.w3.org/2000/svg"><path d="m497 208.867h-49.267v-17.133c0-105.723-86.011-191.734-191.733-191.734s-191.733 86.011-191.733 191.733v17.133h-49.267c-8.284 0-15 6.716-15 15v112.467c0 8.284 6.716 15 15 15h49.267v17.133c0 8.284 6.716 15 15 15h64.267c8.284 0 15-6.716 15-15v-176.733c0-53.743 43.724-97.467 97.467-97.467s97.467 43.724 97.467 97.467v176.733c0 8.284 6.716 15 15 15h47.858c-7.062 37.74-40.232 66.4-79.991 66.4h-35.662c-6.281-18.655-23.926-32.133-44.672-32.133-25.989 0-47.133 21.144-47.133 47.133s21.143 47.134 47.132 47.134c20.745 0 38.391-13.478 44.672-32.133h35.662c61.426 0 111.4-49.974 111.4-111.4v-17.133h49.266c8.284 0 15-6.716 15-15v-112.467c0-8.284-6.716-15-15-15zm-241 273.133c-9.447 0-17.133-7.686-17.133-17.133s7.686-17.133 17.133-17.133 17.133 7.686 17.133 17.133-7.686 17.133-17.133 17.133zm-226-160.667v-82.467h34.267v82.467zm98.533 32.134h-34.266v-146.734h34.267v146.734zm127.467-289.2c-65.218.008-119.142 49.23-126.589 112.467h-34.455c7.592-82.176 76.92-146.734 161.044-146.734s153.452 64.558 161.044 146.733h-34.455c-7.447-63.236-61.371-112.458-126.589-112.466zm127.467 142.466h34.267v146.733h-34.267zm98.533 114.6h-34.267v-82.467h34.267z"/></svg>