<svg xmlns="http://www.w3.org/2000/svg" xmlns:xlink="http://www.w3.org/1999/xlink" width="109.814" height="40" viewBox="0 0 109.814 40">
  <defs>
    <linearGradient id="linear-gradient" x1="1" x2="0" y2="1" gradientUnits="objectBoundingBox">
      <stop offset="0" stop-color="#aa2ef8"/>
      <stop offset="1" stop-color="#7c50f2"/>
    </linearGradient>
  </defs>
  <g id="Group_148" data-name="Group 148" transform="translate(-38 -20)">
    <rect id="Rectangle_12" data-name="Rectangle 12" width="40" height="40" transform="translate(38 20)" fill="url(#linear-gradient)"/>
    <path id="Path_116" data-name="Path 116" d="M2.527-11.875H6.973V-13.11H1.14V0H2.527V-5.985H6.365V-7.239H2.527ZM10.336-.285A3.549,3.549,0,0,0,12.1.152a3.323,3.323,0,0,0,2.47-.96,3.448,3.448,0,0,0,.95-2.537V-13.11H14.136v9.69a2.484,2.484,0,0,1-.542,1.71A1.9,1.9,0,0,1,12.1-1.1a1.91,1.91,0,0,1-1.492-.6,2.478,2.478,0,0,1-.542-1.72v-9.69H8.683v9.766A3.735,3.735,0,0,0,9.12-1.52,3.084,3.084,0,0,0,10.336-.285Zm13.205-11.59V-13.11H16.777v1.235h2.7V0h1.368V-11.875Zm7.21-.276a3.158,3.158,0,0,0-2.556-.96h-3.4V0h1.387V-5.548H28.2q3.363,0,3.363-3.743A4.35,4.35,0,0,0,30.751-12.151ZM29.688-7.372a1.951,1.951,0,0,1-1.568.589H26.182v-5.092H28.12a1.919,1.919,0,0,1,1.568.608,3.1,3.1,0,0,1,.5,1.976A2.939,2.939,0,0,1,29.688-7.372Zm3.467-5.738V0h5.833V-1.235H34.542V-13.11ZM45.733-3.344,46.569,0h1.463L44.46-13.11H43.187L39.615,0h1.444L41.9-3.344Zm-.3-1.2H42.2l1.615-6.479Zm6.935-.912,2.869-7.657h-1.52l-2.033,6-2.033-6h-1.52L51-5.453V0h1.368ZM56.8-.817a3.257,3.257,0,0,0,2.536.95,3.4,3.4,0,0,0,2.584-.941,3.726,3.726,0,0,0,.893-2.67,3.665,3.665,0,0,0-.665-2.337,4.591,4.591,0,0,0-1.976-1.349l-.779-.3a3.736,3.736,0,0,1-1.53-.95,2.207,2.207,0,0,1-.446-1.463,2.391,2.391,0,0,1,.494-1.615,1.855,1.855,0,0,1,1.482-.57q1.9,0,2.033,2.3h1.311a3.874,3.874,0,0,0-.95-2.651,3.19,3.19,0,0,0-2.375-.884,3.257,3.257,0,0,0-2.479.95,3.544,3.544,0,0,0-.9,2.546,3.313,3.313,0,0,0,.646,2.147,4.624,4.624,0,0,0,1.938,1.311l.76.3A4.166,4.166,0,0,1,60.98-5.035a2.4,2.4,0,0,1,.446,1.577,2.656,2.656,0,0,1-.5,1.777,1.918,1.918,0,0,1-1.529.579,2.016,2.016,0,0,1-1.549-.579,2.945,2.945,0,0,1-.6-1.91H55.9A4.123,4.123,0,0,0,56.8-.817Z" transform="translate(85 37)" fill="#fefefe"/>
    <path id="Path_115" data-name="Path 115" d="M7.956-12.42H6.642v9.558L2.394-12.42H1.08V0H2.394V-9.54L6.642,0H7.956Zm2.16,0V0h3.222a3.233,3.233,0,0,0,2.43-.945,3.893,3.893,0,0,0,.918-2.817v-4.9a3.888,3.888,0,0,0-.918-2.826,3.25,3.25,0,0,0-2.43-.936ZM13.338-1.17H11.43V-11.25h1.908a1.8,1.8,0,0,1,1.512.675,3.316,3.316,0,0,1,.522,2.043v4.788a2.985,2.985,0,0,1-.531,1.926A1.833,1.833,0,0,1,13.338-1.17Z" transform="translate(85 57)" fill="#9b34f7"/>
    <path id="Path_15" data-name="Path 15" d="M15.6,6.6V0H8.4V6.6L12,10.2Zm-9,1.8H0v7.2H6.6L10.2,12Zm1.8,9V24h7.2V17.4L12,13.8Zm9-9L13.8,12l3.6,3.6H24V8.4Z" transform="translate(46 28)" fill="#fff"/>
  </g>
</svg>
