<svg xmlns="http://www.w3.org/2000/svg" width="56.837" height="40" viewBox="0 0 56.837 40">
  <g id="XMLID_822_" transform="translate(-91 -113.917)">
    <rect id="Rectangle_10" data-name="Rectangle 10" width="27" height="21" transform="translate(107 123.917)" fill="#fff"/>
    <path id="XMLID_823_" d="M54.622,49.351c-2.052-2.439-5.84-3.434-13.074-3.434H15.289c-7.4,0-11.252,1.059-13.3,3.656C0,52.1,0,55.834,0,61v9.84c0,10,2.364,15.08,15.289,15.08h26.26c6.273,0,9.75-.878,12-3.03,2.306-2.207,3.29-5.811,3.29-12.05V61C56.837,55.553,56.683,51.8,54.622,49.351ZM36.49,67.276,24.565,73.508a1.833,1.833,0,0,1-2.683-1.625V59.458a1.833,1.833,0,0,1,2.679-1.627l11.924,6.192a1.833,1.833,0,0,1,0,3.252Z" transform="translate(91 68)" fill="#ff2153"/>
  </g>
</svg>
