<svg id="fifa21-primary-horizontal-white-nav" xmlns="http://www.w3.org/2000/svg" width="440" height="115" viewBox="0 0 440 115">
  <path id="Path_117" data-name="Path 117" d="M57.3,0a57.5,57.5,0,1,0,57.3,57.5A57.468,57.468,0,0,0,57.3,0Zm0,107.032A49.532,49.532,0,1,1,106.656,57.5,49.433,49.433,0,0,1,57.3,107.032Z" fill="#fff"/>
  <path id="Path_118" data-name="Path 118" d="M33.033,23.48h.579v1.237h.28V23.48h.6v-.263H33.033Z" transform="translate(61.965 43.544)" fill="#fff"/>
  <path id="Path_119" data-name="Path 119" d="M13.919,29.322H10.612c-.747,0-1.1-.412-1.1-1.219V26.791a1.36,1.36,0,0,1,.3-.919.985.985,0,0,1,.8-.356h2.6a1.171,1.171,0,0,1,1.214.9l.355,1.256h2.373V26.285a3.115,3.115,0,0,0-.934-2.325,3.165,3.165,0,0,0-2.3-.919h-3.83a3.184,3.184,0,0,0-2.335.975A3.148,3.148,0,0,0,6.8,26.322v2.25a3.259,3.259,0,0,0,3.288,3.3H13.4c.729,0,1.1.431,1.1,1.256v1.706a1.309,1.309,0,0,1-.3.9,1,1,0,0,1-.8.375H10.761a1.152,1.152,0,0,1-1.233-.9l-.355-1.425H6.782v1.538a3.087,3.087,0,0,0,.934,2.325,3.135,3.135,0,0,0,2.317.937h3.886a3.114,3.114,0,0,0,2.317-.975,3.2,3.2,0,0,0,.953-2.344V32.64a3.165,3.165,0,0,0-.971-2.325A3.091,3.091,0,0,0,13.919,29.322Z" transform="translate(12.722 43.214)" fill="#fff"/>
  <path id="Path_120" data-name="Path 120" d="M18.517,23.042H11.511V38.565h2.728v-5.7H18.5a3.226,3.226,0,0,0,2.354-.975,3.19,3.19,0,0,0,.953-2.325V26.3a3.259,3.259,0,0,0-3.288-3.262ZM19.1,29.1a1.37,1.37,0,0,1-.317.918.973.973,0,0,1-.785.356H14.258V25.554h3.736a.973.973,0,0,1,.785.356,1.37,1.37,0,0,1,.317.918Z" transform="translate(21.593 43.214)" fill="#fff"/>
  <path id="Path_121" data-name="Path 121" d="M30.379,30.934a3.3,3.3,0,0,0,.579-1.912v-2.7a3.124,3.124,0,0,0-.971-2.306,3.2,3.2,0,0,0-2.335-.975H20.814V38.565H23.56V32.491h2.6l2.522,6.074h2.914l-2.709-6.412A3.721,3.721,0,0,0,30.379,30.934Zm-2.167-2.193a1.359,1.359,0,0,1-.3.919,1.016,1.016,0,0,1-.785.337H23.542V25.554h3.587a.973.973,0,0,1,.785.356,1.358,1.358,0,0,1,.3.918Z" transform="translate(39.043 43.214)" fill="#fff"/>
  <path id="Path_122" data-name="Path 122" d="M24.939,25.554h3.942V38.565h2.746V25.554h3.961V23.042H24.939Z" transform="translate(46.781 43.214)" fill="#fff"/>
  <path id="Path_123" data-name="Path 123" d="M36.479,29.322H33.173c-.728,0-1.1-.412-1.1-1.219V26.791a1.359,1.359,0,0,1,.3-.919.961.961,0,0,1,.8-.356h2.6a1.184,1.184,0,0,1,1.214.9l.355,1.256h2.373V26.285a3.166,3.166,0,0,0-3.251-3.244h-3.83a3.125,3.125,0,0,0-2.335.975,3.166,3.166,0,0,0-.971,2.306v2.25a3.25,3.25,0,0,0,.971,2.344,3.179,3.179,0,0,0,2.335.956h3.288c.747,0,1.1.431,1.1,1.256v1.706a1.309,1.309,0,0,1-.3.9,1,1,0,0,1-.8.375H33.3a1.152,1.152,0,0,1-1.233-.9l-.355-1.425H29.324v1.538a3.2,3.2,0,0,0,3.251,3.262h3.867a3.126,3.126,0,0,0,2.335-.975,3.2,3.2,0,0,0,.953-2.344V32.64a3.113,3.113,0,0,0-.99-2.325A2.954,2.954,0,0,0,36.479,29.322Z" transform="translate(55.007 43.214)" fill="#fff"/>
  <path id="Path_124" data-name="Path 124" d="M44.878,9.258H15.416l-4.5,7.181,29.443-.019Z" transform="translate(20.472 17.364)" fill="#fff"/>
  <path id="Path_125" data-name="Path 125" d="M63.513,30.971H59.1l-4.54,7.2h13.47l4.54,7.2h8.594L58.376,9.167,40.067,38.189H20.04l4.6-7.2H37.078l4.521-7.2H13.856l-4.521,7.2h6.651L6.925,45.369H44.214L58.376,22.8Z" transform="translate(12.99 17.192)" fill="#fff"/>
  <path id="Path_126" data-name="Path 126" d="M35.083,23.217l-.6.9-.579-.9h-.243v1.5h.243V23.78c0-.056-.037-.094-.037-.169.037.056.074.113.093.15l.486.75h.037l.467-.731a1.472,1.472,0,0,0,.075-.169v1.106h.262v-1.5Z" transform="translate(63.147 43.544)" fill="#fff"/>
  <path id="Path_127" data-name="Path 127" d="M23.09,23.042h-3.7a3.323,3.323,0,0,0-3.325,3.281v8.924a3.323,3.323,0,0,0,3.325,3.337h3.7A3.323,3.323,0,0,0,26.4,35.246V26.322a3.066,3.066,0,0,0-.971-2.306A3.125,3.125,0,0,0,23.09,23.042Zm.579,11.736a1.266,1.266,0,0,1-.318.9.99.99,0,0,1-.785.375H19.951a1,1,0,0,1-.8-.375,1.342,1.342,0,0,1-.3-.9V26.81a1.359,1.359,0,0,1,.3-.919.985.985,0,0,1,.8-.356h2.616a.973.973,0,0,1,.785.356,1.37,1.37,0,0,1,.318.919Z" transform="translate(30.136 43.214)" fill="#fff"/>
  <path id="Path_128" data-name="Path 128" d="M142.3,19.733h2.39l.86-2.344H142.3V15.215h4.035l.84-2.325h-8.182V23.6H142.3Z" transform="translate(260.727 24.175)" fill="#fff"/>
  <path id="Path_129" data-name="Path 129" d="M145.521,12.89H142.2V23.6h3.324Z" transform="translate(266.736 24.175)" fill="#fff"/>
  <path id="Path_130" data-name="Path 130" d="M147.47,19.733h2.39l.843-2.344H147.47V15.215h4.018l.84-2.325h-8.182V23.6h3.324Z" transform="translate(270.392 24.175)" fill="#fff"/>
  <path id="Path_131" data-name="Path 131" d="M149.67,23.6l.411-1.443h3.753l.431,1.443h3.362L153.742,12.89h-3.457L146.4,23.6Zm2.278-7.949,1.326,4.462h-2.614Z" transform="translate(274.62 24.175)" fill="#fff"/>
  <path id="Path_132" data-name="Path 132" d="M150.2,15.615a1.487,1.487,0,0,0,.5.338,1.517,1.517,0,0,0,1.234,0,1.823,1.823,0,0,0,.5-.338,1.5,1.5,0,0,0,.336-.506,1.513,1.513,0,0,0,0-1.237,2.281,2.281,0,0,0-.336-.506,1.487,1.487,0,0,0-.5-.337,1.513,1.513,0,0,0-1.234,0,2.368,2.368,0,0,0-.5.337,1.5,1.5,0,0,0-.337.506,1.513,1.513,0,0,0,0,1.237A1.8,1.8,0,0,0,150.2,15.615Zm.017-1.65a1.213,1.213,0,0,1,.262-.413,1.121,1.121,0,0,1,.394-.263,1.212,1.212,0,0,1,.935,0,1.136,1.136,0,0,1,.391.263,1.3,1.3,0,0,1,.262.413,1.578,1.578,0,0,1,.092.525,1.671,1.671,0,0,1-.092.525,1.214,1.214,0,0,1-.262.412,1.136,1.136,0,0,1-.391.263,1.212,1.212,0,0,1-.935,0,1.121,1.121,0,0,1-.394-.263,1.3,1.3,0,0,1-.262-.412,1.543,1.543,0,0,1,0-1.05Z" transform="translate(280.87 24.187)" fill="#fff"/>
  <path id="Path_133" data-name="Path 133" d="M150.4,14.162h.2l.466.788h.357l-.486-.788a.662.662,0,0,0,.354-.131.481.481,0,0,0,.132-.356.476.476,0,0,0-.17-.412.9.9,0,0,0-.5-.131h-.673V14.95h.336v-.788Zm0-.787h.429a.266.266,0,0,1,.112.037.3.3,0,0,1,.092.075.258.258,0,0,1,.037.131.333.333,0,0,1-.037.15c-.017.038-.055.056-.072.075a.265.265,0,0,1-.112.037H150.4Z" transform="translate(281.528 24.627)" fill="#fff"/>
  <path id="Path_134" data-name="Path 134" d="M140.519,25.369a1.6,1.6,0,0,0,.581.394,2.12,2.12,0,0,0,.8.131,2.181,2.181,0,0,0,.8-.131,1.6,1.6,0,0,0,.581-.394,1.756,1.756,0,0,0,.354-.6,2.953,2.953,0,0,0,0-1.612,1.461,1.461,0,0,0-.354-.6,1.358,1.358,0,0,0-.581-.375,2.515,2.515,0,0,0-1.6,0,1.827,1.827,0,0,0-.581.375,1.758,1.758,0,0,0-.354.6,2.953,2.953,0,0,0,0,1.612A1.462,1.462,0,0,0,140.519,25.369Zm.6-1.856a1.124,1.124,0,0,1,.15-.375.71.71,0,0,1,.656-.356.863.863,0,0,1,.391.094.705.705,0,0,1,.262.263,1.312,1.312,0,0,1,.15.375,1.879,1.879,0,0,1,0,.9,1.128,1.128,0,0,1-.15.375.7.7,0,0,1-.262.262.675.675,0,0,1-.391.094.872.872,0,0,1-.394-.094.7.7,0,0,1-.262-.262,1.316,1.316,0,0,1-.15-.375,1.88,1.88,0,0,1,0-.9Z" transform="translate(262.714 41.355)" fill="#fff"/>
  <path id="Path_135" data-name="Path 135" d="M142.614,24.3h1.421v-.712h-1.421v-.825h1.5V22.07h-2.485V25.8h.989Z" transform="translate(265.663 41.392)" fill="#fff"/>
  <path id="Path_136" data-name="Path 136" d="M143.734,24.3h1.438v-.712h-1.438v-.825h1.493V22.07h-2.485V25.8h.992Z" transform="translate(267.758 41.392)" fill="#fff"/>
  <path id="Path_137" data-name="Path 137" d="M144.884,22.07h-.992V25.8h.992Z" transform="translate(269.915 41.392)" fill="#fff"/>
  <path id="Path_138" data-name="Path 138" d="M145.257,25.475a1.817,1.817,0,0,0,.693.319,2.622,2.622,0,0,0,.745.094,3.043,3.043,0,0,0,.636-.056c.17-.037.319-.075.469-.094l-.058-.787a2.49,2.49,0,0,1-.449.131,2.121,2.121,0,0,1-.486.056,1.418,1.418,0,0,1-.5-.075,1.338,1.338,0,0,1-.391-.225,1.12,1.12,0,0,1-.262-.375,1.381,1.381,0,0,1-.095-.488,2.046,2.046,0,0,1,.075-.487.888.888,0,0,1,.244-.375.858.858,0,0,1,.374-.244,1.291,1.291,0,0,1,.483-.094,2.029,2.029,0,0,1,.486.056,1.711,1.711,0,0,1,.469.206l.075-.806c-.187-.056-.357-.094-.544-.131a2.853,2.853,0,0,0-.561-.056,2.956,2.956,0,0,0-.84.112,1.925,1.925,0,0,0-.673.356,1.806,1.806,0,0,0-.449.6,2,2,0,0,0-.167.844,1.869,1.869,0,0,0,.187.9A1.976,1.976,0,0,0,145.257,25.475Z" transform="translate(271.11 41.343)" fill="#fff"/>
  <path id="Path_139" data-name="Path 139" d="M146.921,22.07h-.989V25.8h.989Z" transform="translate(273.742 41.392)" fill="#fff"/>
  <path id="Path_140" data-name="Path 140" d="M147.823,25.007h1.4l.279.787h1.084l-1.438-3.731h-1.216l-1.418,3.731h1.009Zm.71-2.156.449,1.462h-.935Z" transform="translate(274.839 41.38)" fill="#fff"/>
  <path id="Path_141" data-name="Path 141" d="M150.682,25.051h-1.53V22.07h-.992V25.8h2.522Z" transform="translate(277.921 41.392)" fill="#fff"/>
  <path id="Path_142" data-name="Path 142" d="M142.575,27.267h-1.533v-3h-.989V28h2.522Z" transform="translate(262.714 45.513)" fill="#fff"/>
  <path id="Path_143" data-name="Path 143" d="M142.179,24.268h-.989V28h.989Z" transform="translate(264.847 45.513)" fill="#fff"/>
  <path id="Path_144" data-name="Path 144" d="M142.448,24.748a1.805,1.805,0,0,0-.449.6,2,2,0,0,0-.167.844,1.869,1.869,0,0,0,.187.9,1.534,1.534,0,0,0,.5.581,1.812,1.812,0,0,0,.693.319,2.629,2.629,0,0,0,.748.094,3.054,3.054,0,0,0,.633-.056c.17-.038.319-.075.469-.094l-.058-.787a2.513,2.513,0,0,1-.449.131,2.137,2.137,0,0,1-.486.056,1.435,1.435,0,0,1-.5-.075,1.339,1.339,0,0,1-.391-.225,1.117,1.117,0,0,1-.262-.375,1.378,1.378,0,0,1-.095-.487,1.436,1.436,0,0,1,.075-.487.886.886,0,0,1,.244-.375.862.862,0,0,1,.374-.244,1.324,1.324,0,0,1,.486-.094,2.022,2.022,0,0,1,.483.056,1.7,1.7,0,0,1,.469.206l.075-.806c-.187-.056-.357-.094-.544-.131a2.846,2.846,0,0,0-.558-.056,3.049,3.049,0,0,0-.843.112A2.768,2.768,0,0,0,142.448,24.748Z" transform="translate(266.053 45.464)" fill="#fff"/>
  <path id="Path_145" data-name="Path 145" d="M144.193,26.461h1.533v-.712h-1.533V24.98h1.625v-.712H143.2V28h2.672V27.3h-1.682Z" transform="translate(268.624 45.513)" fill="#fff"/>
  <path id="Path_146" data-name="Path 146" d="M145.335,25.449,146.641,28h1.216V24.268h-.9l.017,2.531h-.017l-1.251-2.531h-1.271V28h.915Z" transform="translate(270.939 45.513)" fill="#fff"/>
  <path id="Path_147" data-name="Path 147" d="M146.392,26.242a1.481,1.481,0,0,0,.429.187c.15.038.3.094.431.131a1.007,1.007,0,0,1,.316.15.282.282,0,0,1,.132.263.318.318,0,0,1-.058.187.255.255,0,0,1-.129.112c-.058.019-.132.037-.207.056-.075,0-.15.019-.224.019a1.775,1.775,0,0,1-.561-.075,2.445,2.445,0,0,1-.446-.169l-.095.825a2.56,2.56,0,0,0,.541.112c.207.019.394.038.561.038a3.083,3.083,0,0,0,.6-.056,1.432,1.432,0,0,0,.523-.187,1.176,1.176,0,0,0,.374-.375,1.128,1.128,0,0,0,.132-.6.927.927,0,0,0-.132-.544,1.027,1.027,0,0,0-.316-.319,1.5,1.5,0,0,0-.431-.187,2.82,2.82,0,0,1-.429-.131,1.8,1.8,0,0,1-.319-.131.247.247,0,0,1-.129-.225.214.214,0,0,1,.075-.187.648.648,0,0,1,.167-.112.812.812,0,0,1,.224-.037h.207a3.315,3.315,0,0,1,.428.037,1.215,1.215,0,0,1,.394.131l.055-.769a2.469,2.469,0,0,0-.429-.094,4.619,4.619,0,0,0-.523-.037,3.2,3.2,0,0,0-.581.056,1.581,1.581,0,0,0-.523.187,1.14,1.14,0,0,0-.371.356,1.035,1.035,0,0,0-.15.562.949.949,0,0,0,.129.544A1.764,1.764,0,0,0,146.392,26.242Z" transform="translate(273.73 45.488)" fill="#fff"/>
  <path id="Path_148" data-name="Path 148" d="M149.8,24.98v-.712h-2.614V28h2.672V27.3h-1.682v-.844h1.533v-.712h-1.533V24.98Z" transform="translate(276.094 45.513)" fill="#fff"/>
  <path id="Path_149" data-name="Path 149" d="M148.414,24.268V28h1.343a4.225,4.225,0,0,0,.88-.094,1.953,1.953,0,0,0,.69-.319,1.571,1.571,0,0,0,.466-.581,2.057,2.057,0,0,0,.17-.881,2.148,2.148,0,0,0-.17-.9,1.335,1.335,0,0,0-.446-.562,1.659,1.659,0,0,0-.693-.3,4.249,4.249,0,0,0-.9-.094Zm2.223,1.031a1.339,1.339,0,0,1,0,1.687,1.221,1.221,0,0,1-.86.281h-.394v-2.25h.394A1.188,1.188,0,0,1,150.637,25.3Z" transform="translate(278.397 45.513)" fill="#fff"/>
  <path id="Path_150" data-name="Path 150" d="M141.042,28.89h.394a1.686,1.686,0,0,0,1.081-.319,1.065,1.065,0,0,0,.394-.881,1.036,1.036,0,0,0-.411-.919,2.082,2.082,0,0,0-1.271-.3h-1.176V30.2h.989V28.89Zm0-1.725h.262a.979.979,0,0,1,.244.019.572.572,0,0,1,.187.075.523.523,0,0,1,.129.15.47.47,0,0,1,.058.244.52.52,0,0,1-.058.244.471.471,0,0,1-.316.263.994.994,0,0,1-.244.019h-.262Z" transform="translate(262.714 49.646)" fill="#fff"/>
  <path id="Path_151" data-name="Path 151" d="M143.966,28.871c-.037-.094-.058-.169-.095-.244a.419.419,0,0,0-.129-.169.6.6,0,0,0-.187-.094v-.019a.92.92,0,0,0,.541-.319,1.052,1.052,0,0,0,.17-.619A.878.878,0,0,0,144.17,27a.956.956,0,0,0-.262-.3,1.238,1.238,0,0,0-.391-.169,1.873,1.873,0,0,0-.469-.056h-1.774V30.2h.992V28.721h.2a.926.926,0,0,1,.242.037.28.28,0,0,1,.17.131,1.563,1.563,0,0,1,.15.244c.037.094.092.244.15.394l.2.675h1.03l-.357-1.012A1.231,1.231,0,0,0,143.966,28.871Zm-.748-1.05a.572.572,0,0,1-.17.131.93.93,0,0,1-.242.056h-.5v-.844h.262a1.394,1.394,0,0,1,.279.019,2.1,2.1,0,0,1,.224.056.559.559,0,0,1,.167.131.379.379,0,0,1,.058.206A.648.648,0,0,1,143.218,27.821Z" transform="translate(265.004 49.646)" fill="#fff"/>
  <path id="Path_152" data-name="Path 152" d="M145.812,26.958a1.358,1.358,0,0,0-.581-.375,2.52,2.52,0,0,0-1.6,0,1.827,1.827,0,0,0-.581.375,1.758,1.758,0,0,0-.354.6,2.954,2.954,0,0,0,0,1.613,1.463,1.463,0,0,0,.354.6,1.6,1.6,0,0,0,.581.394,2.12,2.12,0,0,0,.8.131,2.18,2.18,0,0,0,.8-.131,1.6,1.6,0,0,0,.581-.394,1.757,1.757,0,0,0,.354-.6,2.954,2.954,0,0,0,0-1.613A1.6,1.6,0,0,0,145.812,26.958Zm-.6,1.856a1.126,1.126,0,0,1-.15.375.705.705,0,0,1-.262.263.677.677,0,0,1-.391.094.875.875,0,0,1-.394-.094.705.705,0,0,1-.262-.263,1.312,1.312,0,0,1-.15-.375,1.853,1.853,0,0,1-.055-.45,1.649,1.649,0,0,1,.055-.45,1.126,1.126,0,0,1,.15-.375.71.71,0,0,1,.656-.356.863.863,0,0,1,.391.094.705.705,0,0,1,.262.263,1.312,1.312,0,0,1,.15.375,1.88,1.88,0,0,1,0,.9Z" transform="translate(267.454 49.609)" fill="#fff"/>
  <path id="Path_153" data-name="Path 153" d="M147.085,26.858a1.654,1.654,0,0,0-.69-.3,4.249,4.249,0,0,0-.9-.094h-1.346V30.2H145.5a4.218,4.218,0,0,0,.877-.094,1.967,1.967,0,0,0,.693-.319,1.63,1.63,0,0,0,.466-.581,2.057,2.057,0,0,0,.167-.881,2.149,2.149,0,0,0-.167-.9A1.331,1.331,0,0,0,147.085,26.858Zm-.69,2.325a1.222,1.222,0,0,1-.86.281h-.394v-2.25h.394a1.222,1.222,0,0,1,.86.281,1.087,1.087,0,0,1,.3.844A1.154,1.154,0,0,1,146.4,29.183Z" transform="translate(270.403 49.633)" fill="#fff"/>
  <path id="Path_154" data-name="Path 154" d="M146.115,29.9a1.508,1.508,0,0,0,.523.263,2.483,2.483,0,0,0,.653.094,2.287,2.287,0,0,0,.653-.094,1.508,1.508,0,0,0,.523-.263,1.143,1.143,0,0,0,.337-.45,1.788,1.788,0,0,0,.112-.656V26.471h-.989v2.156a2.235,2.235,0,0,1-.037.356,1.035,1.035,0,0,1-.095.281.953.953,0,0,1-.187.206.533.533,0,0,1-.316.075.578.578,0,0,1-.319-.075.5.5,0,0,1-.187-.206.714.714,0,0,1-.092-.281,2.244,2.244,0,0,1-.037-.356V26.471h-.989v2.306a1.719,1.719,0,0,0,.112.656A1.462,1.462,0,0,0,146.115,29.9Z" transform="translate(273.243 49.646)" fill="#fff"/>
  <path id="Path_155" data-name="Path 155" d="M149.829,29.5a2.175,2.175,0,0,1-.486.056,1.425,1.425,0,0,1-.5-.075,1.355,1.355,0,0,1-.394-.225,1.118,1.118,0,0,1-.262-.375,1.445,1.445,0,0,1-.092-.487,2.042,2.042,0,0,1,.075-.487.855.855,0,0,1,.242-.375.878.878,0,0,1,.374-.244,1.324,1.324,0,0,1,.486-.094,2.032,2.032,0,0,1,.486.056,1.686,1.686,0,0,1,.466.206l.075-.806c-.187-.056-.354-.094-.541-.131a2.853,2.853,0,0,0-.561-.056,3.029,3.029,0,0,0-.84.112,1.92,1.92,0,0,0-.673.356,1.8,1.8,0,0,0-.449.6,2,2,0,0,0-.17.844,1.9,1.9,0,0,0,.187.9,1.544,1.544,0,0,0,.506.581,1.788,1.788,0,0,0,.69.319,2.642,2.642,0,0,0,.748.094,3.082,3.082,0,0,0,.636-.056c.167-.037.316-.075.466-.094l-.055-.787A1.358,1.358,0,0,1,149.829,29.5Z" transform="translate(275.861 49.622)" fill="#fff"/>
  <path id="Path_156" data-name="Path 156" d="M148.349,27.2h.915v3h.989v-3h.917v-.731h-2.821Z" transform="translate(278.276 49.646)" fill="#fff"/>
  <path id="Path_157" data-name="Path 157" d="M136.6,9.806v59.15h47.155V9.806Zm46.651,58.625H137.126v-28.8h46.128Zm0-29.322H137.126v-28.8h46.128Z" transform="translate(256.242 18.391)" fill="#fff"/>
  <path id="Path_158" data-name="Path 158" d="M53.241,9.806H97.219L95,22.742H67.29L65.385,33.616H87.71L85.487,46.552H63.068l-3.886,22.4H42.817Z" transform="translate(80.317 18.391)" fill="#fff"/>
  <path id="Path_159" data-name="Path 159" d="M70.522,9.806H86.812L76.388,68.956H60.1Z" transform="translate(112.731 18.391)" fill="#fff"/>
  <path id="Path_160" data-name="Path 160" d="M78.15,9.806h43.978L119.9,22.742H92.217L90.312,33.616h22.325l-2.223,12.936h-22.4l-3.886,22.4H67.762Z" transform="translate(127.11 18.391)" fill="#fff"/>
  <path id="Path_161" data-name="Path 161" d="M111.528,9.773H129.8L139.308,69h-16.2l-1.326-10.368H101.365L96.4,69H80.684Zm8.687,36.5-2.728-21.316h-.336l-9.92,21.316Z" transform="translate(151.348 18.33)" fill="#fff"/>
  <path id="Path_162" data-name="Path 162" d="M143.459,9.806,124.5,13.331,122.7,24.073l10.387-.487-8.015,45.351h15.058L150.5,9.806Z" transform="translate(230.165 18.391)" fill="#fff"/>
  <path id="Path_163" data-name="Path 163" d="M106.153,60.544l19.5-18.673c4.3-4.144,11.152-10.443,11.152-15.936,0-3.075-2.315-4.556-5.119-4.556-5.211,0-6.445,4.406-7.118,8.549H109.946c.075-.244.5-2.981.578-3.243,2.223-11.942,12.406-17.173,24.137-17.173,9.266,0,17.767,3.731,17.767,14.192,0,11.624-11.825,20.566-19.671,27.634l-5.53,4.987-.075.412h20.418l-2.223,12.767H104.6Z" transform="translate(196.216 17.841)" fill="#fff"/>
</svg>
