<svg xmlns="http://www.w3.org/2000/svg" width="142.247" height="40" viewBox="0 0 142.247 40">
    <g id="logo" transform="translate(-240 -20)">
        <rect id="Rectangle_12" data-name="Rectangle 12" width="40" height="40" transform="translate(240 20)" fill="#ff2153"/>
        <g id="Group_13" data-name="Group 13" transform="translate(13 4)">
            <path id="Path_75" data-name="Path 75" d="M11.077-13.11H9.69V-2.584L2.907-13.11H1.52V0H2.907V-10.564L9.69,0h1.387ZM15.1-1.054A4.587,4.587,0,0,0,18.43.152a4.523,4.523,0,0,0,3.287-1.178,5.048,5.048,0,0,0,1.216-3.762V-6.745H18.411v1.2h3.135v1.007a3.646,3.646,0,0,1-.788,2.6,3.037,3.037,0,0,1-2.289.817q-3.23,0-3.23-3.667v-3.42a4.279,4.279,0,0,1,.817-2.917,3.065,3.065,0,0,1,2.394-.9,3.247,3.247,0,0,1,2.233.732,2.517,2.517,0,0,1,.826,1.985v.076H22.9V-9.31a3.912,3.912,0,0,0-.551-2.08,3.672,3.672,0,0,0-1.558-1.4,5.29,5.29,0,0,0-2.356-.494A4.587,4.587,0,0,0,15.1-12.075a5.106,5.106,0,0,0-1.245,3.809v3.4A5.106,5.106,0,0,0,15.1-1.054ZM36.974-13.11H35.587L31.35-4.275,27.094-13.11H25.707V0h1.387V-10.26l3.724,7.638h1.064l3.705-7.638V0h1.387ZM40.993-1.054A4.587,4.587,0,0,0,44.327.152a4.523,4.523,0,0,0,3.287-1.178A5.048,5.048,0,0,0,48.83-4.788V-6.745H44.308v1.2h3.135v1.007a3.646,3.646,0,0,1-.789,2.6,3.037,3.037,0,0,1-2.29.817q-3.23,0-3.23-3.667v-3.42a4.279,4.279,0,0,1,.817-2.917,3.065,3.065,0,0,1,2.394-.9,3.247,3.247,0,0,1,2.232.732A2.517,2.517,0,0,1,47.4-9.31v.076h1.387V-9.31a3.912,3.912,0,0,0-.551-2.08,3.672,3.672,0,0,0-1.558-1.4,5.29,5.29,0,0,0-2.356-.494,4.587,4.587,0,0,0-3.334,1.207,5.106,5.106,0,0,0-1.244,3.809v3.4A5.106,5.106,0,0,0,40.993-1.054Zm17.356-2.1L59.451,0h1.463L56.145-13.11H54.986L50.217,0H51.68l1.1-3.154Zm-.4-1.178H53.181l2.375-6.84ZM73.834-13.11H72.447L68.21-4.275,63.954-13.11H62.567V0h1.387V-10.26l3.724,7.638h1.064l3.7-7.638V0h1.387Zm4.427,1.254h6.574V-13.11H76.874V0h7.961V-1.254H78.261V-6.042h5.624V-7.3H78.261Zm9.405,11a4.582,4.582,0,0,0,3.1.969A5.047,5.047,0,0,0,94.05-.864a3.369,3.369,0,0,0,1.2-2.764,3.222,3.222,0,0,0-.874-2.413,4.648,4.648,0,0,0-2.527-1.14l-1.52-.266a3.4,3.4,0,0,1-1.757-.75,1.966,1.966,0,0,1-.58-1.51,2.159,2.159,0,0,1,.751-1.739,3.15,3.15,0,0,1,2.1-.636A2.483,2.483,0,0,1,93.67-9.633h1.368a3.934,3.934,0,0,0-1.321-2.745,4.391,4.391,0,0,0-2.859-.9,4.612,4.612,0,0,0-3.059.969,3.325,3.325,0,0,0-1.159,2.7A3.087,3.087,0,0,0,87.5-7.286a4.5,4.5,0,0,0,2.451,1.092l1.482.247a3.6,3.6,0,0,1,1.843.76,2.094,2.094,0,0,1,.608,1.634,2.216,2.216,0,0,1-.769,1.824,3.494,3.494,0,0,1-2.252.627q-2.85,0-3.116-2.6H86.374A4.08,4.08,0,0,0,87.666-.855Z" transform="translate(274 33)" fill="#fefefe"/>
            <path id="Path_76" data-name="Path 76" d="M1.818-.81A4.341,4.341,0,0,0,4.752.108,4.782,4.782,0,0,0,7.866-.819,3.192,3.192,0,0,0,9-3.438a3.052,3.052,0,0,0-.828-2.286A4.4,4.4,0,0,0,5.778-6.8l-1.44-.252a3.226,3.226,0,0,1-1.665-.711A1.863,1.863,0,0,1,2.124-9.2a2.046,2.046,0,0,1,.711-1.647,2.984,2.984,0,0,1,1.989-.6A2.352,2.352,0,0,1,7.506-9.126H8.8a3.727,3.727,0,0,0-1.251-2.6,4.16,4.16,0,0,0-2.709-.855,4.37,4.37,0,0,0-2.9.918,3.15,3.15,0,0,0-1.1,2.556,2.924,2.924,0,0,0,.81,2.2A4.261,4.261,0,0,0,3.978-5.868l1.4.234a3.415,3.415,0,0,1,1.746.72A1.984,1.984,0,0,1,7.7-3.366a2.1,2.1,0,0,1-.729,1.728,3.31,3.31,0,0,1-2.133.594q-2.7,0-2.952-2.466H.594A3.865,3.865,0,0,0,1.818-.81ZM18.36-11.232V-12.42H9.972v1.188h3.546V0h1.3V-11.232ZM20.313-1A4.282,4.282,0,0,0,23.454.144,4.289,4.289,0,0,0,26.586-1a4.861,4.861,0,0,0,1.17-3.609V-7.83A4.884,4.884,0,0,0,26.6-11.439a4.258,4.258,0,0,0-3.123-1.143,4.314,4.314,0,0,0-3.15,1.143,4.861,4.861,0,0,0-1.17,3.609v3.222A4.884,4.884,0,0,0,20.313-1Zm6.129-3.537q0,3.474-2.97,3.474a2.9,2.9,0,0,1-2.241-.828,3.819,3.819,0,0,1-.765-2.646v-3.24a4.122,4.122,0,0,1,.756-2.763,2.846,2.846,0,0,1,2.25-.855q2.97,0,2.97,3.618Zm8.244-.918L37.494,0h1.512L36.072-5.58a3.414,3.414,0,0,0,1.962-1.152,3.37,3.37,0,0,0,.7-2.2,3.315,3.315,0,0,0-1-2.583,3.927,3.927,0,0,0-2.745-.909H30.384V0H31.7V-5.454ZM31.7-6.588v-4.644h3.186a2.738,2.738,0,0,1,1.881.585,2.205,2.205,0,0,1,.657,1.737,2.2,2.2,0,0,1-.666,1.719,2.691,2.691,0,0,1-1.872.6ZM42.48-11.232h6.228V-12.42H41.166V0h7.542V-1.188H42.48V-5.724h5.328V-6.912H42.48Z" transform="translate(274 53)" fill="#ff2153"/>
        </g>
        <g id="gamepad" transform="translate(248 28)">
            <g id="games">
                <path id="Path_15" data-name="Path 15" d="M15.6,6.6V0H8.4V6.6L12,10.2Zm-9,1.8H0v7.2H6.6L10.2,12Zm1.8,9V24h7.2V17.4L12,13.8Zm9-9L13.8,12l3.6,3.6H24V8.4Z" fill="#212121"/>
            </g>
        </g>
    </g>
</svg>
